<mxfile host="drawio-plugin" modified="2022-07-14T08:04:56.189Z" agent="5.0 (Macintosh; Intel Mac OS X 11_6_7) AppleWebKit/537.36 (KHTML, like Gecko) Chrome/89.0.4389.114 Safari/537.36" etag="b4f2_P9KmOwEwB5qrD_c" version="15.5.4" type="embed" pages="3"><diagram id="KQcbtGoOREhI2lIVvfoT" name="Function-invokation"><mxGraphModel dx="976" dy="688" grid="1" gridSize="10" guides="1" tooltips="1" connect="1" arrows="1" fold="1" page="1" pageScale="1" pageWidth="1169" pageHeight="827" math="0" shadow="0"><root><mxCell id="ii0Irjq99_b-xCAPAXSF-0"/><mxCell id="ii0Irjq99_b-xCAPAXSF-1" parent="ii0Irjq99_b-xCAPAXSF-0"/><mxCell id="ii0Irjq99_b-xCAPAXSF-4" style="edgeStyle=orthogonalEdgeStyle;rounded=0;orthogonalLoop=1;jettySize=auto;html=1;" parent="ii0Irjq99_b-xCAPAXSF-1" source="ii0Irjq99_b-xCAPAXSF-2" target="ii0Irjq99_b-xCAPAXSF-3" edge="1"><mxGeometry relative="1" as="geometry"/></mxCell><mxCell id="ii0Irjq99_b-xCAPAXSF-17" value="rest call" style="edgeStyle=orthogonalEdgeStyle;rounded=0;orthogonalLoop=1;jettySize=auto;html=1;entryX=0.5;entryY=1;entryDx=0;entryDy=0;" parent="ii0Irjq99_b-xCAPAXSF-1" source="ii0Irjq99_b-xCAPAXSF-2" target="ii0Irjq99_b-xCAPAXSF-13" edge="1"><mxGeometry relative="1" as="geometry"><Array as="points"><mxPoint x="180" y="230"/><mxPoint x="344" y="230"/></Array></mxGeometry></mxCell><mxCell id="ii0Irjq99_b-xCAPAXSF-2" value="Feature Resolver" style="rounded=1;whiteSpace=wrap;html=1;" parent="ii0Irjq99_b-xCAPAXSF-1" vertex="1"><mxGeometry x="116" y="403" width="130" height="60" as="geometry"/></mxCell><mxCell id="ii0Irjq99_b-xCAPAXSF-7" style="edgeStyle=orthogonalEdgeStyle;rounded=0;orthogonalLoop=1;jettySize=auto;html=1;" parent="ii0Irjq99_b-xCAPAXSF-1" source="ii0Irjq99_b-xCAPAXSF-3" target="ii0Irjq99_b-xCAPAXSF-6" edge="1"><mxGeometry relative="1" as="geometry"/></mxCell><mxCell id="ii0Irjq99_b-xCAPAXSF-3" value="Keys, Features &amp;amp; Functions" style="verticalLabelPosition=bottom;html=1;verticalAlign=top;align=center;strokeColor=none;fillColor=#00BEF2;shape=mxgraph.azure.queue_generic;pointerEvents=1;" parent="ii0Irjq99_b-xCAPAXSF-1" vertex="1"><mxGeometry x="299" y="425.5" width="50" height="15" as="geometry"/></mxCell><mxCell id="ii0Irjq99_b-xCAPAXSF-5" value="k1, f1 (x1, x2, x3, ..)&lt;br&gt;k2, f3 (x2, x3, x4, ..)" style="text;html=1;strokeColor=none;fillColor=none;align=center;verticalAlign=middle;whiteSpace=wrap;rounded=0;" parent="ii0Irjq99_b-xCAPAXSF-1" vertex="1"><mxGeometry x="170" y="483" width="110" height="30" as="geometry"/></mxCell><mxCell id="hXdJghqgN4hwPs4kYaVu-4" style="edgeStyle=orthogonalEdgeStyle;rounded=0;orthogonalLoop=1;jettySize=auto;html=1;entryX=0;entryY=0.5;entryDx=0;entryDy=0;entryPerimeter=0;" parent="ii0Irjq99_b-xCAPAXSF-1" source="ii0Irjq99_b-xCAPAXSF-6" target="hXdJghqgN4hwPs4kYaVu-3" edge="1"><mxGeometry relative="1" as="geometry"/></mxCell><mxCell id="ii0Irjq99_b-xCAPAXSF-6" value="Function Router" style="rounded=1;whiteSpace=wrap;html=1;" parent="ii0Irjq99_b-xCAPAXSF-1" vertex="1"><mxGeometry x="404" y="403" width="120" height="60" as="geometry"/></mxCell><mxCell id="ii0Irjq99_b-xCAPAXSF-23" value="grpc" style="edgeStyle=orthogonalEdgeStyle;rounded=0;orthogonalLoop=1;jettySize=auto;html=1;" parent="ii0Irjq99_b-xCAPAXSF-1" source="ii0Irjq99_b-xCAPAXSF-8" target="ii0Irjq99_b-xCAPAXSF-21" edge="1"><mxGeometry relative="1" as="geometry"><mxPoint x="730" y="113" as="targetPoint"/></mxGeometry></mxCell><mxCell id="ii0Irjq99_b-xCAPAXSF-31" style="edgeStyle=orthogonalEdgeStyle;rounded=0;orthogonalLoop=1;jettySize=auto;html=1;" parent="ii0Irjq99_b-xCAPAXSF-1" source="ii0Irjq99_b-xCAPAXSF-8" target="ii0Irjq99_b-xCAPAXSF-30" edge="1"><mxGeometry relative="1" as="geometry"/></mxCell><mxCell id="hXdJghqgN4hwPs4kYaVu-6" style="edgeStyle=orthogonalEdgeStyle;rounded=0;orthogonalLoop=1;jettySize=auto;html=1;entryX=1.009;entryY=0.4;entryDx=0;entryDy=0;entryPerimeter=0;" parent="ii0Irjq99_b-xCAPAXSF-1" source="ii0Irjq99_b-xCAPAXSF-8" target="ii0Irjq99_b-xCAPAXSF-13" edge="1"><mxGeometry relative="1" as="geometry"><Array as="points"><mxPoint x="700" y="300"/><mxPoint x="545" y="300"/><mxPoint x="545" y="137"/></Array></mxGeometry></mxCell><mxCell id="ii0Irjq99_b-xCAPAXSF-8" value="Function Bridge" style="whiteSpace=wrap;html=1;aspect=fixed;" parent="ii0Irjq99_b-xCAPAXSF-1" vertex="1"><mxGeometry x="690" y="393" width="80" height="80" as="geometry"/></mxCell><mxCell id="ii0Irjq99_b-xCAPAXSF-10" value="&lt;h1&gt;Function Config 1&lt;/h1&gt;&lt;p&gt;Key : entity 1 x context 1&lt;/p&gt;&lt;p&gt;Function : Rule 1&lt;/p&gt;&lt;p&gt;Input Features : x1, x2, x3, x4....&lt;/p&gt;&lt;p&gt;Output Features : x11, x12, x13....&lt;br&gt;&lt;/p&gt;" style="text;html=1;strokeColor=none;fillColor=none;spacing=5;spacingTop=-20;whiteSpace=wrap;overflow=hidden;rounded=0;" parent="ii0Irjq99_b-xCAPAXSF-1" vertex="1"><mxGeometry x="450" y="483" width="220" height="150" as="geometry"/></mxCell><mxCell id="ii0Irjq99_b-xCAPAXSF-11" value="&lt;h1&gt;Function Config 2&lt;/h1&gt;&lt;p&gt;Key : entity 2 x context 2&lt;/p&gt;&lt;p&gt;&lt;span&gt;Function : Rule 2&lt;/span&gt;&lt;/p&gt;&lt;p&gt;Features : x2, x4, x6, x8&lt;/p&gt;&lt;p&gt;Output Features : x31, x32...&lt;br&gt;&lt;/p&gt;" style="text;html=1;strokeColor=none;fillColor=none;spacing=5;spacingTop=-20;whiteSpace=wrap;overflow=hidden;rounded=0;" parent="ii0Irjq99_b-xCAPAXSF-1" vertex="1"><mxGeometry x="449" y="650" width="240" height="163" as="geometry"/></mxCell><mxCell id="ii0Irjq99_b-xCAPAXSF-12" value="&lt;h1 style=&quot;color: rgb(0 , 0 , 0) ; font-family: &amp;#34;helvetica&amp;#34; ; font-style: normal ; letter-spacing: normal ; text-align: left ; text-indent: 0px ; text-transform: none ; word-spacing: 0px ; background-color: rgb(248 , 249 , 250)&quot;&gt;Function Bridge Config&amp;nbsp;&lt;/h1&gt;&lt;p style=&quot;color: rgb(0 , 0 , 0) ; font-family: &amp;#34;helvetica&amp;#34; ; font-size: 12px ; font-style: normal ; font-weight: 400 ; letter-spacing: normal ; text-align: left ; text-indent: 0px ; text-transform: none ; word-spacing: 0px ; background-color: rgb(248 , 249 , 250)&quot;&gt;GRPC Host : localhost&lt;/p&gt;&lt;p style=&quot;color: rgb(0 , 0 , 0) ; font-family: &amp;#34;helvetica&amp;#34; ; font-size: 12px ; font-style: normal ; font-weight: 400 ; letter-spacing: normal ; text-align: left ; text-indent: 0px ; text-transform: none ; word-spacing: 0px ; background-color: rgb(248 , 249 , 250)&quot;&gt;GPRC Port : 3223&lt;/p&gt;" style="text;whiteSpace=wrap;html=1;" parent="ii0Irjq99_b-xCAPAXSF-1" vertex="1"><mxGeometry x="715" y="488" width="230" height="140" as="geometry"/></mxCell><mxCell id="ii0Irjq99_b-xCAPAXSF-13" value="Schema Service" style="ellipse;whiteSpace=wrap;html=1;aspect=fixed;" parent="ii0Irjq99_b-xCAPAXSF-1" vertex="1"><mxGeometry x="289" y="93" width="110" height="110" as="geometry"/></mxCell><mxCell id="ii0Irjq99_b-xCAPAXSF-20" style="edgeStyle=orthogonalEdgeStyle;rounded=0;orthogonalLoop=1;jettySize=auto;html=1;entryX=0;entryY=0.5;entryDx=0;entryDy=0;" parent="ii0Irjq99_b-xCAPAXSF-1" source="ii0Irjq99_b-xCAPAXSF-19" target="ii0Irjq99_b-xCAPAXSF-13" edge="1"><mxGeometry relative="1" as="geometry"/></mxCell><mxCell id="ii0Irjq99_b-xCAPAXSF-19" value="Brain UI" style="rounded=1;whiteSpace=wrap;html=1;" parent="ii0Irjq99_b-xCAPAXSF-1" vertex="1"><mxGeometry x="140" y="118" width="120" height="60" as="geometry"/></mxCell><mxCell id="ii0Irjq99_b-xCAPAXSF-22" style="edgeStyle=orthogonalEdgeStyle;rounded=0;orthogonalLoop=1;jettySize=auto;html=1;entryX=0.5;entryY=0;entryDx=0;entryDy=0;" parent="ii0Irjq99_b-xCAPAXSF-1" source="ii0Irjq99_b-xCAPAXSF-21" target="ii0Irjq99_b-xCAPAXSF-13" edge="1"><mxGeometry relative="1" as="geometry"/></mxCell><mxCell id="ii0Irjq99_b-xCAPAXSF-25" value="updates" style="edgeLabel;html=1;align=center;verticalAlign=middle;resizable=0;points=[];" parent="ii0Irjq99_b-xCAPAXSF-22" vertex="1" connectable="0"><mxGeometry x="-0.2423" y="-4" relative="1" as="geometry"><mxPoint as="offset"/></mxGeometry></mxCell><mxCell id="ii0Irjq99_b-xCAPAXSF-21" value="Rule Engine" style="shape=cube;whiteSpace=wrap;html=1;boundedLbl=1;backgroundOutline=1;darkOpacity=0.05;darkOpacity2=0.1;" parent="ii0Irjq99_b-xCAPAXSF-1" vertex="1"><mxGeometry x="670" y="20" width="120" height="80" as="geometry"/></mxCell><mxCell id="ii0Irjq99_b-xCAPAXSF-24" value="Rules - Read Only" style="text;html=1;strokeColor=none;fillColor=none;align=center;verticalAlign=middle;whiteSpace=wrap;rounded=0;" parent="ii0Irjq99_b-xCAPAXSF-1" vertex="1"><mxGeometry x="180" y="61" width="60" height="30" as="geometry"/></mxCell><mxCell id="ii0Irjq99_b-xCAPAXSF-27" style="edgeStyle=orthogonalEdgeStyle;rounded=0;orthogonalLoop=1;jettySize=auto;html=1;" parent="ii0Irjq99_b-xCAPAXSF-1" source="ii0Irjq99_b-xCAPAXSF-26" target="ii0Irjq99_b-xCAPAXSF-21" edge="1"><mxGeometry relative="1" as="geometry"/></mxCell><mxCell id="ii0Irjq99_b-xCAPAXSF-26" value="Rules UI - part of Brain UI" style="rounded=1;whiteSpace=wrap;html=1;" parent="ii0Irjq99_b-xCAPAXSF-1" vertex="1"><mxGeometry x="900" y="30" width="120" height="60" as="geometry"/></mxCell><mxCell id="ii0Irjq99_b-xCAPAXSF-29" style="edgeStyle=orthogonalEdgeStyle;rounded=0;orthogonalLoop=1;jettySize=auto;html=1;entryX=0.858;entryY=0.988;entryDx=0;entryDy=0;entryPerimeter=0;" parent="ii0Irjq99_b-xCAPAXSF-1" source="ii0Irjq99_b-xCAPAXSF-28" target="ii0Irjq99_b-xCAPAXSF-21" edge="1"><mxGeometry relative="1" as="geometry"/></mxCell><mxCell id="ii0Irjq99_b-xCAPAXSF-28" value="Rule Repository" style="shape=cylinder3;whiteSpace=wrap;html=1;boundedLbl=1;backgroundOutline=1;size=15;" parent="ii0Irjq99_b-xCAPAXSF-1" vertex="1"><mxGeometry x="770" y="178" width="60" height="80" as="geometry"/></mxCell><mxCell id="ii0Irjq99_b-xCAPAXSF-30" value="Resultant feature" style="verticalLabelPosition=bottom;html=1;verticalAlign=top;align=center;strokeColor=none;fillColor=#00BEF2;shape=mxgraph.azure.queue_generic;pointerEvents=1;" parent="ii0Irjq99_b-xCAPAXSF-1" vertex="1"><mxGeometry x="860" y="425.5" width="50" height="15" as="geometry"/></mxCell><mxCell id="ii0Irjq99_b-xCAPAXSF-32" value="&lt;h1 style=&quot;color: rgb(0 , 0 , 0) ; font-family: &amp;#34;helvetica&amp;#34; ; font-style: normal ; letter-spacing: normal ; text-align: left ; text-indent: 0px ; text-transform: none ; word-spacing: 0px ; background-color: rgb(248 , 249 , 250)&quot;&gt;Functions&lt;/h1&gt;&lt;p style=&quot;color: rgb(0 , 0 , 0) ; font-family: &amp;#34;helvetica&amp;#34; ; font-size: 12px ; font-style: normal ; font-weight: 400 ; letter-spacing: normal ; text-align: left ; text-indent: 0px ; text-transform: none ; word-spacing: 0px ; background-color: rgb(248 , 249 , 250)&quot;&gt;&amp;nbsp;1. Rules&lt;/p&gt;&lt;p style=&quot;color: rgb(0 , 0 , 0) ; font-family: &amp;#34;helvetica&amp;#34; ; font-size: 12px ; font-style: normal ; font-weight: 400 ; letter-spacing: normal ; text-align: left ; text-indent: 0px ; text-transform: none ; word-spacing: 0px ; background-color: rgb(248 , 249 , 250)&quot;&gt;&amp;nbsp;2. Remote Model&lt;/p&gt;&lt;p style=&quot;color: rgb(0 , 0 , 0) ; font-family: &amp;#34;helvetica&amp;#34; ; font-size: 12px ; font-style: normal ; font-weight: 400 ; letter-spacing: normal ; text-align: left ; text-indent: 0px ; text-transform: none ; word-spacing: 0px ; background-color: rgb(248 , 249 , 250)&quot;&gt;&amp;nbsp;3. In Process Model&amp;nbsp;&lt;/p&gt;&lt;span style=&quot;font-family: &amp;#34;helvetica&amp;#34;&quot;&gt;(Executed differently)&lt;/span&gt;&lt;p style=&quot;color: rgb(0 , 0 , 0) ; font-family: &amp;#34;helvetica&amp;#34; ; font-size: 12px ; font-style: normal ; font-weight: 400 ; letter-spacing: normal ; text-align: left ; text-indent: 0px ; text-transform: none ; word-spacing: 0px ; background-color: rgb(248 , 249 , 250)&quot;&gt;&amp;nbsp;4. Interpretation Layer (Executed differently)&lt;/p&gt;" style="text;whiteSpace=wrap;html=1;" parent="ii0Irjq99_b-xCAPAXSF-1" vertex="1"><mxGeometry x="910" y="150" width="230" height="220" as="geometry"/></mxCell><mxCell id="hXdJghqgN4hwPs4kYaVu-1" style="edgeStyle=orthogonalEdgeStyle;rounded=0;orthogonalLoop=1;jettySize=auto;html=1;" parent="ii0Irjq99_b-xCAPAXSF-1" source="hXdJghqgN4hwPs4kYaVu-0" target="ii0Irjq99_b-xCAPAXSF-2" edge="1"><mxGeometry relative="1" as="geometry"/></mxCell><mxCell id="hXdJghqgN4hwPs4kYaVu-0" value="Keys &amp;amp; Functions" style="verticalLabelPosition=bottom;html=1;verticalAlign=top;align=center;strokeColor=none;fillColor=#00BEF2;shape=mxgraph.azure.queue_generic;pointerEvents=1;" parent="ii0Irjq99_b-xCAPAXSF-1" vertex="1"><mxGeometry x="25" y="425.5" width="50" height="15" as="geometry"/></mxCell><mxCell id="hXdJghqgN4hwPs4kYaVu-5" style="edgeStyle=orthogonalEdgeStyle;rounded=0;orthogonalLoop=1;jettySize=auto;html=1;entryX=0;entryY=0.5;entryDx=0;entryDy=0;" parent="ii0Irjq99_b-xCAPAXSF-1" source="hXdJghqgN4hwPs4kYaVu-3" target="ii0Irjq99_b-xCAPAXSF-8" edge="1"><mxGeometry relative="1" as="geometry"/></mxCell><mxCell id="hXdJghqgN4hwPs4kYaVu-3" value="rule_function_topic" style="verticalLabelPosition=bottom;html=1;verticalAlign=top;align=center;strokeColor=none;fillColor=#00BEF2;shape=mxgraph.azure.queue_generic;pointerEvents=1;" parent="ii0Irjq99_b-xCAPAXSF-1" vertex="1"><mxGeometry x="580" y="425.5" width="50" height="15" as="geometry"/></mxCell></root></mxGraphModel></diagram><diagram id="Sctkxzz5FAkerrYyxljc" name="Page-1"><mxGraphModel dx="976" dy="688" grid="1" gridSize="10" guides="1" tooltips="1" connect="1" arrows="1" fold="1" page="1" pageScale="1" pageWidth="1169" pageHeight="827" math="0" shadow="0"><root><mxCell id="0"/><mxCell id="1" parent="0"/><mxCell id="2" value="Kubernetes" style="rounded=0;whiteSpace=wrap;html=1;" parent="1" vertex="1"><mxGeometry x="200" y="80" width="530" height="450" as="geometry"/></mxCell><mxCell id="7" style="edgeStyle=orthogonalEdgeStyle;rounded=0;orthogonalLoop=1;jettySize=auto;html=1;" parent="1" source="3" target="4" edge="1"><mxGeometry relative="1" as="geometry"/></mxCell><mxCell id="3" value="Load balancer" style="rounded=1;whiteSpace=wrap;html=1;" parent="1" vertex="1"><mxGeometry x="110" y="275" width="120" height="60" as="geometry"/></mxCell><mxCell id="6" style="edgeStyle=orthogonalEdgeStyle;rounded=0;orthogonalLoop=1;jettySize=auto;html=1;entryX=0;entryY=0.5;entryDx=0;entryDy=0;" parent="1" source="4" target="5" edge="1"><mxGeometry relative="1" as="geometry"/></mxCell><mxCell id="9" style="edgeStyle=orthogonalEdgeStyle;rounded=0;orthogonalLoop=1;jettySize=auto;html=1;entryX=0;entryY=0.5;entryDx=0;entryDy=0;" parent="1" source="4" target="8" edge="1"><mxGeometry relative="1" as="geometry"/></mxCell><mxCell id="4" value="Ingress" style="rounded=1;whiteSpace=wrap;html=1;" parent="1" vertex="1"><mxGeometry x="290" y="275" width="120" height="60" as="geometry"/></mxCell><mxCell id="5" value="Service 1" style="shape=process;whiteSpace=wrap;html=1;backgroundOutline=1;" parent="1" vertex="1"><mxGeometry x="540" y="170" width="120" height="60" as="geometry"/></mxCell><mxCell id="8" value="Service 2" style="shape=process;whiteSpace=wrap;html=1;backgroundOutline=1;" parent="1" vertex="1"><mxGeometry x="540" y="370" width="120" height="60" as="geometry"/></mxCell></root></mxGraphModel></diagram><diagram id="9OxSdckTWErIqFBrBw8K" name="Page-3"><mxGraphModel dx="976" dy="688" grid="1" gridSize="10" guides="1" tooltips="1" connect="1" arrows="1" fold="1" page="1" pageScale="1" pageWidth="850" pageHeight="1100" math="0" shadow="0"><root><mxCell id="YuSgCKnt1id5_z92FSod-0"/><mxCell id="YuSgCKnt1id5_z92FSod-1" parent="YuSgCKnt1id5_z92FSod-0"/><mxCell id="YuSgCKnt1id5_z92FSod-2" value="&lt;h1&gt;Rule&lt;/h1&gt;&lt;p&gt;if($customer_id == Rajan) {&lt;/p&gt;&lt;p&gt;&lt;br&gt;&lt;/p&gt;&lt;p&gt;}&lt;/p&gt;&lt;p&gt;if(&lt;/p&gt;$customer_id == Rajan &amp;amp;&amp;amp;&amp;nbsp;&lt;span&gt;$customer_type == Premium) {&lt;/span&gt;&lt;br&gt;&lt;p&gt;&lt;br&gt;&lt;/p&gt;&lt;p&gt;}&lt;/p&gt;&lt;p&gt;&lt;br&gt;&lt;/p&gt;&lt;p&gt;if(entity_type == customer) {&lt;/p&gt;&lt;p&gt;&lt;br&gt;&lt;/p&gt;&lt;p&gt;}&lt;/p&gt;" style="text;html=1;strokeColor=none;fillColor=none;spacing=5;spacingTop=-20;whiteSpace=wrap;overflow=hidden;rounded=0;" vertex="1" parent="YuSgCKnt1id5_z92FSod-1"><mxGeometry x="110" y="290" width="680" height="320" as="geometry"/></mxCell></root></mxGraphModel></diagram></mxfile>